<?xml version="1.0" standalone="no"?>
<!DOCTYPE svg PUBLIC "-//W3C//DTD SVG 20010904//EN"
 "http://www.w3.org/TR/2001/REC-SVG-20010904/DTD/svg10.dtd">
<svg version="1.0" xmlns="http://www.w3.org/2000/svg"
 width="512.000000pt" height="512.000000pt" viewBox="0 0 512.000000 512.000000"
 preserveAspectRatio="xMidYMid meet">

<g transform="translate(0.000000,512.000000) scale(0.100000,-0.100000)"
fill="#000000" stroke="none">
<path d="M720 4676 c-194 -55 -340 -206 -385 -397 -22 -96 -22 -2062 0 -2158
41 -173 172 -320 340 -383 54 -20 82 -23 277 -26 l216 -3 4 -242 c3 -237 4
-243 28 -287 35 -62 96 -102 164 -108 102 -8 104 -7 441 329 l310 309 815 2
815 3 60 22 c168 64 299 212 340 384 22 96 22 2062 0 2158 -41 173 -171 320
-340 384 l-60 22 -1490 2 c-1180 1 -1499 -1 -1535 -11z m3038 -225 c68 -31
144 -113 169 -183 17 -50 18 -109 18 -1068 0 -959 -1 -1018 -18 -1068 -25 -70
-101 -152 -169 -183 l-53 -24 -840 -5 c-462 -3 -842 -6 -845 -8 -2 -1 -145
-143 -317 -314 l-313 -313 0 268 c0 288 -5 322 -52 349 -17 9 -94 14 -293 18
-257 5 -272 6 -323 29 -64 29 -143 112 -168 178 -18 45 -19 102 -22 1038 -3
1012 -1 1069 35 1139 21 41 92 115 127 133 82 43 45 42 1561 40 l1450 -2 53
-24z"/>
<path d="M2098 4031 c-126 -41 -224 -125 -282 -243 -63 -128 -64 -211 -3 -249
23 -14 43 -19 70 -15 61 7 78 29 107 134 14 52 77 125 135 155 30 16 58 22
115 22 66 0 82 -4 130 -31 100 -57 153 -170 130 -280 -17 -79 -59 -137 -137
-187 -125 -81 -200 -183 -223 -307 -15 -77 -12 -157 6 -195 14 -31 64 -65 94
-65 7 0 27 7 45 16 46 22 65 66 65 153 0 109 31 158 148 230 158 99 245 296
214 484 -31 185 -167 335 -347 383 -71 19 -198 17 -267 -5z"/>
<path d="M2184 2541 c-89 -54 -47 -191 57 -191 74 0 124 75 95 143 -15 38 -59
67 -98 67 -13 0 -37 -9 -54 -19z"/>
<path d="M4455 3993 c-30 -7 -73 -52 -80 -84 -6 -28 19 -99 35 -99 23 0 122
-107 147 -158 l28 -57 0 -1025 c0 -966 -1 -1028 -18 -1077 -24 -70 -93 -145
-165 -180 l-57 -28 -270 -5 c-199 -4 -276 -9 -293 -18 -47 -27 -52 -61 -52
-349 l0 -268 -307 307 c-170 168 -318 311 -330 317 -15 8 -186 11 -558 11
l-537 0 -34 -34 c-49 -49 -45 -114 10 -158 19 -16 63 -18 526 -18 l505 0 300
-301 c167 -167 317 -309 339 -321 31 -16 53 -19 102 -16 78 5 136 41 174 108
24 44 25 50 28 287 l4 243 188 0 c104 0 213 5 242 11 139 29 284 140 352 268
69 132 67 85 64 1239 l-3 1037 -23 64 c-63 173 -222 325 -317 304z"/>
</g>
</svg>
